<svg width="24" height="24" viewBox="0 0 24 24" fill="none" xmlns="http://www.w3.org/2000/svg">
<path d="M22.9987 4.01568C22.9977 3.97532 22.9905 3.93496 22.9771 3.89763C22.9751 3.89158 22.973 3.88654 22.9709 3.88048C22.9565 3.84315 22.936 3.80885 22.9102 3.77757C22.9071 3.77353 22.9041 3.77051 22.8999 3.76647C22.8732 3.7362 22.8413 3.70896 22.8042 3.68777L18.1842 1.05247C18.1379 1.02623 18.0854 1.00908 18.0319 1.00303C18.0165 1.00101 18.001 1 17.9846 1H17.9825C17.9629 1 17.9444 1.00202 17.9259 1.00404C15.9663 1.25728 14.0829 1.82733 12.3271 2.70006L11.9978 2.8635L11.6736 2.70207C9.91364 1.82632 8.02815 1.25525 6.0687 1.00505C6.05326 1.00303 6.03577 1.00202 6.0193 1.00202H6.01827H6.01724C5.95446 1.00303 5.89888 1.01614 5.84948 1.03834C5.83713 1.04338 5.82684 1.04944 5.81552 1.05549L1.19658 3.6877C1.1585 3.70889 1.12762 3.73714 1.10086 3.7674C1.09777 3.77144 1.09469 3.77447 1.0916 3.77749C1.06587 3.80877 1.04529 3.84308 1.03088 3.88041C1.02882 3.88646 1.02676 3.8915 1.0247 3.89756C1.01132 3.9359 1.00412 3.97525 1.00309 4.0156C1.00103 4.01762 1 4.01964 1 4.02267V20.0628C1 20.1769 1.05043 20.2848 1.13997 20.3595C1.22951 20.4321 1.34478 20.4654 1.46109 20.4452C4.25443 19.9831 7.17608 20.3756 9.73993 21.553C9.86858 21.6126 9.99826 21.6741 10.1248 21.7367L10.5705 21.9586C10.6281 21.9869 10.6888 22 10.7496 22H13.2525C13.3133 22 13.374 21.9869 13.4316 21.9586L13.8773 21.7367C14.0039 21.6751 14.1325 21.6126 14.2622 21.553C16.8238 20.3746 19.7456 19.9821 22.5389 20.4452C22.6552 20.4654 22.7705 20.4321 22.86 20.3605C22.9496 20.2848 23 20.1758 23 20.0628V4.02267C23 4.01964 22.9987 4.0177 22.9987 4.01568ZM10.8244 20.7085V6.47638H13.1751V20.7085H10.8244ZM13.5198 5.0044L13.1565 5.185H10.8429L10.4796 5.0044C8.22871 3.88651 5.6949 3.3548 3.17847 3.45468L6.09616 1.79195C7.9199 2.03914 9.67465 2.57792 11.3153 3.39414L11.8186 3.64435C11.9308 3.69984 12.0635 3.70085 12.1767 3.64435L12.6852 3.39111C14.3226 2.57691 16.0784 2.03812 17.9051 1.78892L20.8228 3.45467C18.3054 3.35479 15.7685 3.8855 13.5198 5.0044Z" fill="black"/>
</svg>
