<svg width="24" height="24" viewBox="0 0 24 24" fill="none" xmlns="http://www.w3.org/2000/svg">
<path d="M15.0193 5.65769L16.9794 4.43162V1H14.6361V2.86308H12.981V1H10.7749V2.86308H9.12079V1H6.77637V4.43162L8.73759 5.65769H15.0193Z" fill="black"/>
<path d="M5.82736 20.3938L5.15283 21.5296V22.9999H18.6039V21.5296L17.9294 20.3938H5.82736Z" fill="black"/>
<path d="M15.0195 6.51562C15.0182 6.57292 14.8648 13.3912 17.1016 16.1982C17.6336 16.8927 18.7568 17.3383 18.7568 18.5596C18.7566 19.3686 17.9388 19.5343 17.9297 19.5361H5.82715C5.80626 19.5319 5.00025 19.3626 5 18.5596C5 17.3384 6.12326 16.8927 6.6543 16.1982C8.89225 13.3911 8.73862 6.57236 8.7373 6.51562H15.0195Z" fill="black"/>
</svg>
