<svg width="24" height="24" viewBox="0 0 24 24" fill="none" xmlns="http://www.w3.org/2000/svg">
<path d="M12 0C12.2079 0 12.3566 0.148931 12.416 0.327148L14.0498 9.86133C14.0498 9.92065 14.1089 9.92062 14.1387 9.9502L23.6729 11.584C23.8808 11.6434 24 11.7921 24 12C24 12.2079 23.8808 12.3566 23.6729 12.416L14.1387 14.0498C14.0793 14.0498 14.0794 14.1089 14.0498 14.1387L12.416 23.6729C12.3566 23.8808 12.2079 24 12 24C11.7921 24 11.6434 23.8511 11.584 23.6729L9.9502 14.1387C9.9502 14.0793 9.89107 14.0794 9.86133 14.0498L0.327148 12.416C0.119228 12.3566 9.71592e-08 12.2079 0 12C0 11.7921 0.148931 11.6434 0.327148 11.584L9.86133 9.9502C9.92065 9.9502 9.92061 9.89107 9.9502 9.86133L11.584 0.327148C11.6434 0.119228 11.7921 7.5716e-07 12 0ZM12 10C10.8954 10 10 10.8954 10 12C10 13.1046 10.8954 14 12 14C13.1046 14 14 13.1046 14 12C14 10.8954 13.1046 10 12 10Z" fill="black"/>
<path d="M20.8927 21.207C21.0996 21.4139 21.4101 21.1034 21.2549 20.8448L17.0664 14.8452L15.2043 15.1547L14.8931 17.0168L20.8927 21.207Z" fill="black"/>
<path d="M9.20367 16.873L8.88728 14.9694L6.9837 14.6513L2.70021 20.7862C2.54265 21.1031 2.86026 21.3671 3.12438 21.2087L9.20367 16.873Z" fill="black"/>
<path d="M21.3007 3.20704C21.456 2.89485 21.143 2.63466 20.8828 2.79081L14.8928 7.06275L15.2046 8.93836L17.0802 9.25182L21.3007 3.20704Z" fill="black"/>
<path d="M3.11375 2.79418C2.90373 2.58417 2.58856 2.89934 2.74607 3.16186L6.99765 9.25182L8.88781 8.93765L9.2037 7.04749L3.11375 2.79418Z" fill="black"/>
</svg>
